<?xml version="1.0" standalone="no"?>
<!DOCTYPE svg PUBLIC "-//W3C//DTD SVG 20010904//EN"
 "http://www.w3.org/TR/2001/REC-SVG-20010904/DTD/svg10.dtd">
<svg version="1.0" xmlns="http://www.w3.org/2000/svg"
 width="168.000000pt" height="168.000000pt" viewBox="0 0 168.000000 168.000000"
 preserveAspectRatio="xMidYMid meet">
<metadata>
Created by potrace 1.14, written by Peter Selinger 2001-2017
</metadata>
<g transform="translate(0.000000,168.000000) scale(0.100000,-0.100000)"
fill="#000000" stroke="none">
<path d="M0 840 l0 -840 480 0 480 0 16 25 c20 31 27 31 44 0 l13 -25 324 0
323 0 0 840 0 840 -840 0 -840 0 0 -840z m860 554 c0 -8 -5 -12 -10 -9 -6 4
-8 11 -5 16 9 14 15 11 15 -7z m140 -74 c0 -5 -4 -10 -10 -10 -5 0 -10 5 -10
10 0 6 5 10 10 10 6 0 10 -4 10 -10z m27 -276 c-3 -3 -12 -4 -19 -1 -8 3 -5 6
6 6 11 1 17 -2 13 -5z m-182 -84 c3 -5 1 -10 -4 -10 -6 0 -11 5 -11 10 0 6 2
10 4 10 3 0 8 -4 11 -10z m218 -43 c-3 -6 -1 -7 5 -3 7 4 12 3 12 -2 0 -18
-26 -20 -61 -5 l-34 15 30 13 c31 14 61 3 48 -18z m-213 13 c0 -5 -2 -10 -4
-10 -3 0 -8 5 -11 10 -3 6 -1 10 4 10 6 0 11 -4 11 -10z m375 0 c3 -6 -1 -7
-9 -4 -18 7 -21 14 -7 14 6 0 13 -4 16 -10z m-355 -40 c0 -5 -7 -10 -15 -10
-8 0 -15 5 -15 10 0 6 7 10 15 10 8 0 15 -4 15 -10z m50 -160 c0 -5 -4 -10
-10 -10 -5 0 -10 5 -10 10 0 6 5 10 10 10 6 0 10 -4 10 -10z m283 -88 c15 -32
27 -65 27 -74 0 -31 -50 -151 -90 -219 -22 -36 -53 -101 -70 -145 -16 -43 -29
-71 -30 -61 0 28 -1 31 -12 44 -15 18 -28 16 -28 -4 0 -15 -1 -15 -18 0 -10
10 -24 17 -30 17 -12 0 -49 48 -54 71 -3 13 2 15 46 18 12 1 16 6 12 16 -3 8
0 20 7 27 7 7 28 33 47 58 19 25 39 47 43 49 11 4 67 121 67 139 0 31 32 122
43 122 7 -1 24 -27 40 -58z m37 -10 c0 -15 -2 -15 -10 -2 -13 20 -13 33 0 25
6 -3 10 -14 10 -23z m-410 -352 c0 -4 -8 -15 -19 -24 -17 -16 -18 -16 -14 7 4
21 33 35 33 17z m-24 -190 l-14 -45 1 57 c1 47 4 56 14 45 11 -10 10 -21 -1
-57z m204 30 c11 -23 25 -53 31 -67 l10 -27 -22 19 c-39 36 -69 115 -44 115 3
0 14 -18 25 -40z"/>
</g>
</svg>
